<svg xmlns="http://www.w3.org/2000/svg" xmlns:xlink="http://www.w3.org/1999/xlink" id="Layer_1" data-name="Layer 1" viewBox="98.77 137.29 377.72 255.33"><defs><style>.cls-1,.cls-2,.cls-4,.cls-6,.cls-9{fill:none;}.cls-1,.cls-10,.cls-11,.cls-20,.cls-21,.cls-4,.cls-6,.cls-7,.cls-9{stroke:#313232;}.cls-1,.cls-20,.cls-21,.cls-4,.cls-9{stroke-miterlimit:10;}.cls-1,.cls-4{stroke-width:1.38px;}.cls-14,.cls-3{fill:#6b7d1f;}.cls-10,.cls-11,.cls-14,.cls-15,.cls-16,.cls-4,.cls-5,.cls-6,.cls-7{stroke-linecap:round;}.cls-5{fill:#e7ead6;stroke:#e7ead6;}.cls-10,.cls-11,.cls-14,.cls-15,.cls-16,.cls-5,.cls-6,.cls-7{stroke-linejoin:round;stroke-width:1.38px;}.cls-21,.cls-7,.cls-8{fill:#fff;}.cls-9{stroke-width:1.38px;}.cls-10,.cls-13{fill:#313232;}.cls-11{fill:#d3a798;}.cls-12{clip-path:url(#clip-path);}.cls-14{stroke:#6b7d1f;}.cls-15{fill:#e1edf5;stroke:#e1edf5;}.cls-16,.cls-20{fill:#f65b0f;}.cls-16{stroke:#f65b0f;}.cls-17{clip-path:url(#clip-path-2);}.cls-18{clip-path:url(#clip-path-3);}.cls-19{clip-path:url(#clip-path-4);}.cls-20,.cls-21{stroke-width:0.94px;}</style><clipPath id="clip-path"><path class="cls-1" d="M284.38,201.66a9.45,9.45,0,0,0-13.56,8.3,18.19,18.19,0,0,0,.16,4.17l0,0a138.19,138.19,0,0,1,18.32-8.89A15.27,15.27,0,0,0,284.38,201.66Z"/></clipPath><clipPath id="clip-path-2"><path class="cls-2" d="M164.41,315.29a228.12,228.12,0,0,0-12-39.27.67.67,0,0,0-.66-.43c-5.52.18-10.8.55-15.7,1.1a.66.66,0,0,0-.5.3.7.7,0,0,0-.09.58l11.82,39.09a.68.68,0,0,0,.66.48h0c5-.17,10.11-.57,15-1l.78-.06a.71.71,0,0,0,.5-.28A.72.72,0,0,0,164.41,315.29Z"/></clipPath><clipPath id="clip-path-3"><path class="cls-2" d="M476.45,348.9c-3.84-10.78-7.51-22.13-10.08-31.14-3.58-12.56-9.07-22.63-16.78-30.77-5.45-5.75-13.13-10-23.5-13.11-4.68-1.39-9.53-2.45-14.21-3.47-3.92-.85-8-1.74-11.91-2.81a118.78,118.78,0,0,1-28-12.06.69.69,0,0,0-.94.25.65.65,0,0,0-.09.38L248,261.57a.68.68,0,0,0-.71-.66l-114.49,4.8a.69.69,0,0,0-.54.29.67.67,0,0,0-.09.6l25,82.73a.7.7,0,0,0,.66.49h318a.7.7,0,0,0,.65-.92Z"/></clipPath><clipPath id="clip-path-4"><path class="cls-2" d="M465.44,314.69a74.6,74.6,0,0,0-9.88-20.39.74.74,0,0,0-.51-.29c-6.81-.56-13.35-.7-20.28-.84l-5.49-.13a.69.69,0,0,0-.6.34.68.68,0,0,0,0,.69,50.56,50.56,0,0,0,11.92,14.86,31.57,31.57,0,0,0,17.54,7.36c.48,0,.95,0,1.42,0a18.79,18.79,0,0,0,5.45-.78.68.68,0,0,0,.45-.87Z"/></clipPath></defs><line class="cls-1" x1="178.07" y1="228.85" x2="175.58" y2="220.06"/><path class="cls-1" d="M190.29,220.12l3.37,9.82a3.35,3.35,0,0,1-2.37,4.33l-6.89,1.67a4.32,4.32,0,0,1-5.2-3.08l-.13-.5"/><line class="cls-1" x1="188.32" y1="229.98" x2="184.99" y2="219.38"/><path class="cls-3" d="M154.47,137.29s13.88,18.63,25.22,22.12-6.34,2-6.34,2,46,18.83,29.07,15.59-8.46,5-8.46,5,39.34,16.32,24.18,16.44-33.7-1.95-21.9,4.52S254,218.31,229,218s-58,.81-82.89,24.62c-3.63,3.48,1.2-21.86,15.4-34.16,0,0-8.25-1.6-24.94,7.15-4.38,2.29,1.44-14.75,10.55-24.88,16.94-18.81-19.12,7.56-7.76-3.83s10.74-17.56,15.42-21.09-19.47,12.72-7.58-.21A43.87,43.87,0,0,0,154.47,137.29Z"/><path class="cls-4" d="M163.4,207.59S152.23,218.53,149,228.13"/><path class="cls-4" d="M205.12,187.1s-13.4-8-23.48-8.74"/><path class="cls-4" d="M154,188.91s-5.77,10.85-1.37,9.56c3.13-.92,6.11-5.39,7.55-7.88a1.39,1.39,0,0,1,2.21-.26c2.46,2.6,7.49,7.4,6.4,1.91-1.43-7.2.63-7.73,5.54-5.14s6.71,6.22,3.1-5.68"/><path class="cls-4" d="M154.42,168.87s-4.79,6.47-1.15,7.55c2.61.78,5.09-4.26,6.3-6.22a1.19,1.19,0,0,1,1.84-.21c2.05,2.06,4.72,4.8,5.33,1.51,1.24-6.69,0-4.15,4.62-4.06,6,.11,11-.58,2.58-4.49"/><path class="cls-4" d="M173,211.42a18.44,18.44,0,0,1,2.08,1c4.63,2.44,6.49,5.8,3.68-3.76a.68.68,0,0,1,1-.77A13.91,13.91,0,0,0,189.88,210c4.4-.94.88-3.69-1.77-5.32a.69.69,0,0,1,.36-1.27h1.41"/><path class="cls-5" d="M237.17,241.31c.26-12.62-.45-25.32-3.26-37.63s-7.48-23.83-15.15-33.84a74.5,74.5,0,0,0,2.52,30.6,88.61,88.61,0,0,0-25.59-39.28c1.62,3.76,1.38,8,1.63,12.1A49.48,49.48,0,0,0,203.2,194a43.27,43.27,0,0,0-15.43-11.81c4.41,9.46,8.83,18.94,12.49,28.72,4.4,11.78,7.78,24.2,15.09,34.43C222.59,245.34,230.23,243.38,237.17,241.31Z"/><path class="cls-6" d="M219.77,196.2c4.5,9.75,2.95,21.46,7.36,31.26"/><path class="cls-6" d="M230.74,212.3c.5,7.58.75,15.19.74,22.79"/><path class="cls-6" d="M205.49,181.42q5.16,10.68,9.68,21.64"/><path class="cls-7" d="M164.29,240.12l39.88-11.46s9.36,27.69,8.88,44l-29.14,8.14S171.76,267.85,164.29,240.12Z"/><path class="cls-8" d="M218.06,271.31a68.21,68.21,0,0,1-14.66-28.45,209.52,209.52,0,0,1,44.07-7.67A131.73,131.73,0,0,1,246,268Z"/><path class="cls-9" d="M218.06,271.31a68.21,68.21,0,0,1-14.66-28.45,209.52,209.52,0,0,1,44.07-7.67A131.73,131.73,0,0,1,246,268Z"/><path class="cls-7" d="M353,242.48c-11.08-11.08-18.38-25.74-31.27-35-14.59-10.53-33.71-11.9-51.71-12q-21-.12-41.93,1.41C234,217,241,241.41,247.3,261.48l124.34-5.34C365.09,252.29,358.37,247.87,353,242.48Z"/><path class="cls-10" d="M334.59,240.23h0a3.35,3.35,0,0,1,3.35,3.35v20.37a0,0,0,0,1,0,0h-6.7a0,0,0,0,1,0,0V243.58A3.35,3.35,0,0,1,334.59,240.23Z" transform="translate(25.98 -31.22) rotate(5.56)"/><path class="cls-11" d="M293.36,211.26a15.48,15.48,0,0,0,8.31,1.71c-2.14,1.2-4.52,2.64-6.66,3.84"/><path class="cls-11" d="M283.27,234.75a13,13,0,0,1-2.94-1.85,25.48,25.48,0,0,1-6.87-10.3c-1.55-4-3-8.32-2.64-12.64a9.45,9.45,0,0,1,13.56-8.3c4.54,2,7.6,6.5,9.72,10.8a42,42,0,0,1,3.43,8.92c.7,3,1.26,6.31.11,9.29C295.33,236.63,288.41,237.14,283.27,234.75Z"/><g class="cls-12"><image width="1000" height="1000" transform="translate(225.99 169.1) scale(0.07)" xlink:href="../../../Gold_Texture.jpeg"/></g><path class="cls-1" d="M284.38,201.66a9.45,9.45,0,0,0-13.56,8.3,18.19,18.19,0,0,0,.16,4.17l0,0a138.19,138.19,0,0,1,18.32-8.89A15.27,15.27,0,0,0,284.38,201.66Z"/><path class="cls-6" d="M288.75,216.92a10.93,10.93,0,0,0,8.43,3.08"/><circle class="cls-13" cx="291.06" cy="213.41" r="0.69"/><path class="cls-10" d="M295.92,203.72a1.06,1.06,0,0,0-.54-.37,1.39,1.39,0,0,0-.7.05,28,28,0,0,0-4.67,1.67c-5.67,2.43-11.19,5.2-16.7,8a11,11,0,0,0-2.28,1.39,40.7,40.7,0,0,0,2.43,8.17,31.66,31.66,0,0,0,3.23,6.22,2.77,2.77,0,0,0,2-2.12,5.3,5.3,0,0,0,0-2.71,8.35,8.35,0,0,1-.51-2.17,4.53,4.53,0,0,1,.37-1.49,4.47,4.47,0,0,1,1.65-2.49,8.88,8.88,0,0,1,1.28-.48,4.41,4.41,0,0,0,2.6-5.61,4.72,4.72,0,0,0,5.62-4.95,6.81,6.81,0,0,0,3.21.66,4,4,0,0,0,2.73-1A2.14,2.14,0,0,0,295.92,203.72Z"/><path class="cls-11" d="M282.15,217.34a6.63,6.63,0,0,0-2.13-1.92,3.23,3.23,0,0,0-2.78-.16,3,3,0,0,0-1.55,2,4.56,4.56,0,0,0,.15,2.56,4.85,4.85,0,0,0,2.4,2.88,3.38,3.38,0,0,0,3.61-.39"/><path class="cls-6" d="M278,217.83c.83.58,1.63,1.19,2.41,1.83"/><path class="cls-7" d="M252.13,265.68a50.78,50.78,0,0,1,19.59-26.15,30.81,30.81,0,0,1,10.78-5.15c4-.91,8.49-.63,11.93,1.36a13.92,13.92,0,0,1,6,7.65,35.92,35.92,0,0,1,1.49,9.32l.88,12.58"/><path class="cls-11" d="M305.17,263.23c1.41-8.36,3.36-16.82,7.88-24,2.44-3.87,5.87-7.46,10.33-8.53,5.2-1.26,10.86,1.37,14.05,5.67a8.8,8.8,0,0,1,1.67,3.4,4.64,4.64,0,0,1-.65,3.65,6.49,6.49,0,0,1,1.17,3.6,3.46,3.46,0,0,1-.46,2.12,3.19,3.19,0,0,1-3.27,1.14,9.32,9.32,0,0,1-3.29-1.6l-3.37-2.21a83.16,83.16,0,0,0-3.91,15.2"/><path class="cls-6" d="M328.29,237.69a15.42,15.42,0,0,1,10.48,6.23"/><path class="cls-14" d="M150,244a64,64,0,0,1-20.62,7.93c-5.32,1-10.88,1.38-16.1-.07a4.85,4.85,0,0,1-2.28-1.15,3.83,3.83,0,0,1-.91-2.55c-.08-3.07,2-5.75,4.06-8a41,41,0,0,1,10.53-8.35,24,24,0,0,1,13-3,25.59,25.59,0,0,1,11.7,4.25,12.25,12.25,0,0,1,3.24,2.79c.8,1.07,1.74,3.1,1.28,4.45C153.3,242,151.35,243.18,150,244Z"/><path class="cls-14" d="M144.73,230a19.66,19.66,0,0,0-9.45-8.05,58.77,58.77,0,0,0-12.14-3.39L110.72,216c-3-.61-6.25-1.17-8.9.3a3.22,3.22,0,0,0-1.37,1.29,3.28,3.28,0,0,0-.26,1.7,9.37,9.37,0,0,0,3.87,6.59,20.93,20.93,0,0,0,7.12,3.24A57.62,57.62,0,0,0,132.72,231a90,90,0,0,1,9.56-.57A12.25,12.25,0,0,0,144.73,230Z"/><path class="cls-14" d="M121.07,213.49c-3.22-4.53-6.14-9.74-5.81-15.29a3.6,3.6,0,0,1,1-2.64c1.21-1,3-.33,4.4.44,13.34,7.45,23.34,20.38,28,34.93,1,3.09-2.56,1.7-4.17,1.21a36.19,36.19,0,0,1-6.35-2.6,44.1,44.1,0,0,1-11.78-9.45A68.34,68.34,0,0,1,121.07,213.49Z"/><path class="cls-14" d="M183.83,220.62c.33-.43-.29-1-.82-1.11a15.94,15.94,0,0,0-9.54.32,27.88,27.88,0,0,0-8.41,4.74,24.33,24.33,0,0,0-7.18,8.26,12.65,12.65,0,0,0-.47,10.66,21.49,21.49,0,0,0,16.75-8.81c2.25-3.16,3.66-6.91,6.22-9.83C181.38,223.71,182.89,221.83,183.83,220.62Z"/><path class="cls-15" d="M157,290.87c-5.85-9.57-14.11-26.11-19.16-36.12a159.47,159.47,0,0,1,46-8.72,286,286,0,0,1,1.69,41.48Z"/><path class="cls-6" d="M159.16,248.82a35.06,35.06,0,0,0-8.25-14.71c-4-4.08-9.25-5.83-14.68-7a116.19,116.19,0,0,0-18.84-2.51"/><path class="cls-6" d="M157.33,243.79a39,39,0,0,1,11.44-18.25"/><path class="cls-6" d="M156.25,234.83a20.73,20.73,0,0,1,9.65-13"/><path class="cls-6" d="M123.37,217.86a94.58,94.58,0,0,1,13,3.77,34.87,34.87,0,0,1,8.56,4.72,17.33,17.33,0,0,1,3.33,2.83,9.56,9.56,0,0,1,1.88,4"/><path class="cls-6" d="M118.49,235.14a42.42,42.42,0,0,1,9.45-5.52,25.28,25.28,0,0,1,11.23-1.81"/><path class="cls-6" d="M121.26,242.82q5.2-2.56,10.6-4.68c6.27-2.44,13-4.42,19.65-3.36"/><path class="cls-6" d="M121.54,200.8a97.91,97.91,0,0,1,10.85,11.27c1.88,2.29,3.66,4.67,5.44,7l3.49,4.66"/><path class="cls-5" d="M371.64,256.14a120.67,120.67,0,0,0,28.14,12.12c8.64,2.36,17.53,3.73,26.12,6.28s17,6.42,23.19,12.92c8.23,8.69,13.34,19,16.62,30.49,2.81,9.86,6.65,21.52,10.09,31.18h-318l-25-82.73,114.49-4.8"/><line class="cls-6" x1="283.25" y1="269.38" x2="260.79" y2="270.44"/><ellipse class="cls-10" cx="224.81" cy="353.96" rx="15.41" ry="34.81" transform="translate(-108.69 99.78) rotate(-20.27)"/><ellipse class="cls-10" cx="386.15" cy="353.96" rx="15.41" ry="34.81" transform="translate(-98.7 155.66) rotate(-20.27)"/><path class="cls-16" d="M148,316.46c5.29-.18,10.71-.63,15.75-1a226.42,226.42,0,0,0-11.91-39.15c-5.15.17-10.48.52-15.66,1.09Z"/><path class="cls-16" d="M458.17,315.6a18.5,18.5,0,0,0,6.62-.7,74.3,74.3,0,0,0-9.8-20.2c-8.6-.71-16.95-.75-25.72-1A50.25,50.25,0,0,0,441,308.4,30.67,30.67,0,0,0,458.17,315.6Z"/><line class="cls-6" x1="407.91" y1="387.54" x2="133.21" y2="387.54"/><path class="cls-6" d="M99.46,302.8q12.57.78,25.17.47"/><path class="cls-6" d="M101.33,286a197.35,197.35,0,0,0,27.26,8.17"/><g class="cls-17"><path class="cls-6" d="M142.32,302.51l22.22-1.36"/><path class="cls-6" d="M136,290.12c9.95-.85,19.66-1.66,26.61-2.56"/></g><g class="cls-18"><line class="cls-6" x1="273.4" y1="352.59" x2="247.34" y2="261.6"/><path class="cls-6" d="M359.89,353.5c-2.7-7.88-4.26-16.11-3.34-24.44.74-6.65,3.47-13.35,8.7-17.54a19.75,19.75,0,0,1,19.7-2.68c7.15,3.06,11.85,9.69,15.8,16.09a207.81,207.81,0,0,1,12.66,23.81c.6,1.32,1.17,2.63,1.74,4"/><path class="cls-6" d="M196.29,351.17c-1-7.66.07-18,3-25.18,2.38-5.77,6.64-11.21,12.63-13,4.52-1.32,9.5-.36,13.67,1.84A38.09,38.09,0,0,1,236.3,324c8.59,10,14.78,21.63,20.66,33.33"/><path class="cls-6" d="M169.39,351.3a221.77,221.77,0,0,0-6.87-23.14c-4,.48-8.26.85-12.5,1.17"/><path class="cls-6" d="M469.49,324.05c-9.44-.4-18.72-1-28.32-1.78a84.22,84.22,0,0,1,14,28.92"/></g><g class="cls-19"><path class="cls-6" d="M425.71,300.85a160.28,160.28,0,0,0,44,.8"/></g><path class="cls-10" d="M315.07,207.82h0a2.9,2.9,0,0,1,2.9,2.9v3.13a2.9,2.9,0,0,1-2.9,2.9h0a0,0,0,0,1,0,0v-8.93A0,0,0,0,1,315.07,207.82Z" transform="translate(-60.93 159.57) rotate(-25.9)"/><path class="cls-6" d="M318,211.73a16.2,16.2,0,0,0,2.91-4.61"/><path class="cls-6" d="M353,242.48c-11.08-11.08-18.38-25.74-31.27-35-14.59-10.53-33.71-11.9-51.71-12q-21-.12-41.93,1.41C234,217,241,241.41,247.3,261.48l124.34-5.34C365.09,252.29,358.37,247.87,353,242.48Z"/><path class="cls-6" d="M268.69,302.38c-1.77-6-4-12-5.72-18,1.78-.17,3.71-.33,5.5-.32a11.8,11.8,0,0,1,1.88.13,5,5,0,0,1,3.93,3.14,3.79,3.79,0,0,1-1.77,4.32,7.29,7.29,0,0,1-2,.74,17,17,0,0,1-4.56.41"/><path class="cls-6" d="M307.6,284.65c2,6.05,3.77,10.53,5.86,16.6"/><path class="cls-6" d="M353.16,282.26c1.69,6,3.95,13.46,5.72,19.44"/><path class="cls-6" d="M340.76,283.73c1.7,6,4,12,5.73,18"/><path class="cls-6" d="M332.57,285.47a6.58,6.58,0,0,0-4-2.44,4.4,4.4,0,0,0-5.56,4.63,17.66,17.66,0,0,0,1.93,7.62,12.53,12.53,0,0,0,3.11,4.49,6.92,6.92,0,0,0,5.53,1.65c2-.37,3.63-2.12,3.25-3.85"/><path class="cls-6" d="M343.91,292.51c3.52-.08,8.58-.16,12.11-.24"/><line class="cls-6" x1="299.41" y1="283.81" x2="316.3" y2="283.81"/><path class="cls-6" d="M285.58,294.2h10.16"/><path class="cls-6" d="M285.55,302.2c-1.06-5.42-2.11-11-.63-16.35.23-.8.7-1.74,1.65-1.81a2.29,2.29,0,0,1,1.31.42,13.17,13.17,0,0,1,3.53,3.49A144.08,144.08,0,0,1,300.52,302"/><path class="cls-6" d="M169.33,220.45a20.71,20.71,0,0,1,16.15,0"/><path class="cls-20" d="M292.75,200.48s-15.29-11-26.39-12.35c-14.13-1.72,9.21,4.11.37,24.1C265.49,215,296.47,204,292.75,200.48Z"/><path class="cls-21" d="M281.46,205.13s-3.52-1.5-5.67,2.47c0,0-5.3-1.74-6.66,2.9,0,0-6.7-.47-2.57,5.14,0,0,3.74,2.57,5.32-2.31,0,0,4.62,1.71,6.13-2.58,0,0,5.4,2,6-2.16,0,0,5.53,1.47,5.71-3.16,0,0,6.41,1.56,6.21-4.31,0,0-.84-3.08-5.41-.42,0,0-4-1.63-4.39,2.59C286.09,203.29,282.66,202.08,281.46,205.13Z"/><path class="cls-21" d="M261.91,185.69s-6.71-3-5,2.16c0,0-4.17,4.73,1.87,4.29,0,0,3.3,5.64,4.39-1.91C263.21,190.23,269.83,183.37,261.91,185.69Z"/></svg>